<?xml version="1.0" encoding="UTF-8"?>
<svg width="172px" height="60px" viewBox="0 0 172 60" version="1.1" xmlns="http://www.w3.org/2000/svg" xmlns:xlink="http://www.w3.org/1999/xlink">
    <!-- Generator: Sketch 51 (57462) - http://www.bohemiancoding.com/sketch -->
    <title>Badge / App Store badge</title>
    <desc>Created with Sketch.</desc>
    <defs></defs>
    <g id="landing-page" stroke="none" stroke-width="1" fill="none" fill-rule="evenodd">
        <g transform="translate(-135.000000, -412.000000)" id="header">
            <g transform="translate(0.000000, -2.000000)">
                <g id="Badge-/-App-Store-badge" transform="translate(135.000000, 414.000000)">
                    <g id="Rectangle-1-+-Google-Play-Icon-+-Imported-Layers-+-Download-on-the-+-Imported-Layers">
                        <g id="Rectangle-1-+-Google-Play-Icon-+-Imported-Layers" stroke="#FFFFFF" stroke-opacity="0.5">
                            <rect id="Rectangle-1" x="0.5" y="0.5" width="171" height="59" rx="10"></rect>
                        </g>
                        <path d="M44.064,18.972 L44.064,9.69 C44.806,9.578 45.688,9.494 46.654,9.494 C48.404,9.494 49.65,9.9 50.476,10.67 C51.316,11.44 51.806,12.532 51.806,14.058 C51.806,15.598 51.33,16.858 50.448,17.726 C49.566,18.608 48.11,19.084 46.276,19.084 C45.408,19.084 44.68,19.042 44.064,18.972 Z M45.282,10.586 L45.282,18.034 C45.59,18.09 46.038,18.104 46.514,18.104 C49.118,18.104 50.532,16.648 50.532,14.1 C50.546,11.874 49.286,10.46 46.71,10.46 C46.08,10.46 45.604,10.516 45.282,10.586 Z M56.272,12.07 C58.218,12.07 59.534,13.484 59.534,15.556 C59.534,18.062 57.798,19.154 56.16,19.154 C54.326,19.154 52.912,17.81 52.912,15.668 C52.912,13.4 54.396,12.07 56.272,12.07 Z M56.244,12.994 C54.788,12.994 54.158,14.338 54.158,15.626 C54.158,17.11 55.012,18.23 56.216,18.23 C57.392,18.23 58.274,17.124 58.274,15.598 C58.274,14.45 57.7,12.994 56.244,12.994 Z M60.22,12.224 L61.48,12.224 L62.376,15.668 C62.572,16.424 62.754,17.124 62.88,17.824 L62.922,17.824 C63.076,17.138 63.3,16.41 63.524,15.682 L64.63,12.224 L65.666,12.224 L66.716,15.612 C66.968,16.424 67.164,17.138 67.318,17.824 L67.36,17.824 C67.472,17.138 67.654,16.424 67.878,15.626 L68.844,12.224 L70.062,12.224 L67.878,19 L66.758,19 L65.722,15.766 C65.484,15.01 65.288,14.338 65.12,13.54 L65.092,13.54 C64.924,14.352 64.714,15.052 64.476,15.78 L63.384,19 L62.264,19 L60.22,12.224 Z M71.294,19 L71.294,14.058 C71.294,13.358 71.28,12.784 71.238,12.224 L72.33,12.224 L72.4,13.344 L72.428,13.344 C72.764,12.7 73.548,12.07 74.668,12.07 C75.606,12.07 77.062,12.63 77.062,14.954 L77.062,19 L75.83,19 L75.83,15.094 C75.83,14.002 75.424,13.092 74.262,13.092 C73.45,13.092 72.82,13.666 72.61,14.352 C72.554,14.506 72.526,14.716 72.526,14.926 L72.526,19 L71.294,19 Z M79.064,19 L79.064,9.06 L80.296,9.06 L80.296,19 L79.064,19 Z M85.238,12.07 C87.184,12.07 88.5,13.484 88.5,15.556 C88.5,18.062 86.764,19.154 85.126,19.154 C83.292,19.154 81.878,17.81 81.878,15.668 C81.878,13.4 83.362,12.07 85.238,12.07 Z M85.21,12.994 C83.754,12.994 83.124,14.338 83.124,15.626 C83.124,17.11 83.978,18.23 85.182,18.23 C86.358,18.23 87.24,17.124 87.24,15.598 C87.24,14.45 86.666,12.994 85.21,12.994 Z M94.926,19 L93.806,19 L93.708,18.146 L93.666,18.146 C93.288,18.678 92.56,19.154 91.594,19.154 C90.222,19.154 89.522,18.188 89.522,17.208 C89.522,15.57 90.978,14.674 93.596,14.688 L93.596,14.548 C93.596,13.988 93.442,12.98 92.056,12.98 C91.426,12.98 90.768,13.176 90.292,13.484 L90.012,12.672 C90.572,12.308 91.384,12.07 92.238,12.07 C94.31,12.07 94.814,13.484 94.814,14.842 L94.814,17.376 C94.814,17.964 94.842,18.538 94.926,19 Z M93.624,16.718 L93.624,15.542 C92.28,15.514 90.754,15.752 90.754,17.068 C90.754,17.866 91.286,18.244 91.916,18.244 C92.798,18.244 93.358,17.684 93.554,17.11 C93.596,16.984 93.624,16.844 93.624,16.718 Z M101.422,9.06 L102.654,9.06 L102.654,17.25 C102.654,17.852 102.668,18.538 102.71,19 L101.604,19 L101.548,17.824 L101.52,17.824 C101.142,18.58 100.316,19.154 99.21,19.154 C97.572,19.154 96.312,17.768 96.312,15.71 C96.298,13.456 97.698,12.07 99.35,12.07 C100.386,12.07 101.086,12.56 101.394,13.106 L101.422,13.106 L101.422,9.06 Z M101.422,16.158 L101.422,14.982 C101.422,14.828 101.408,14.618 101.366,14.464 C101.184,13.68 100.512,13.036 99.588,13.036 C98.314,13.036 97.558,14.156 97.558,15.654 C97.558,17.026 98.23,18.16 99.56,18.16 C100.386,18.16 101.142,17.614 101.366,16.69 C101.408,16.522 101.422,16.354 101.422,16.158 Z M110.536,12.07 C112.482,12.07 113.798,13.484 113.798,15.556 C113.798,18.062 112.062,19.154 110.424,19.154 C108.59,19.154 107.176,17.81 107.176,15.668 C107.176,13.4 108.66,12.07 110.536,12.07 Z M110.508,12.994 C109.052,12.994 108.422,14.338 108.422,15.626 C108.422,17.11 109.276,18.23 110.48,18.23 C111.656,18.23 112.538,17.124 112.538,15.598 C112.538,14.45 111.964,12.994 110.508,12.994 Z M115.352,19 L115.352,14.058 C115.352,13.358 115.338,12.784 115.296,12.224 L116.388,12.224 L116.458,13.344 L116.486,13.344 C116.822,12.7 117.606,12.07 118.726,12.07 C119.664,12.07 121.12,12.63 121.12,14.954 L121.12,19 L119.888,19 L119.888,15.094 C119.888,14.002 119.482,13.092 118.32,13.092 C117.508,13.092 116.878,13.666 116.668,14.352 C116.612,14.506 116.584,14.716 116.584,14.926 L116.584,19 L115.352,19 Z M126.37,10.6 L127.574,10.278 L127.574,12.224 L129.338,12.224 L129.338,13.162 L127.574,13.162 L127.574,16.816 C127.574,17.656 127.812,18.132 128.498,18.132 C128.82,18.132 129.058,18.09 129.212,18.048 L129.268,18.972 C129.03,19.07 128.652,19.14 128.176,19.14 C127.602,19.14 127.14,18.958 126.846,18.622 C126.496,18.258 126.37,17.656 126.37,16.858 L126.37,13.162 L125.32,13.162 L125.32,12.224 L126.37,12.224 L126.37,10.6 Z M130.724,19 L130.724,9.06 L131.956,9.06 L131.956,13.288 L131.984,13.288 C132.18,12.938 132.488,12.63 132.866,12.42 C133.23,12.21 133.664,12.07 134.126,12.07 C135.036,12.07 136.492,12.63 136.492,14.968 L136.492,19 L135.26,19 L135.26,15.108 C135.26,14.016 134.854,13.092 133.692,13.092 C132.894,13.092 132.264,13.652 132.04,14.324 C131.97,14.492 131.956,14.674 131.956,14.912 L131.956,19 L130.724,19 Z M143.94,15.836 L139.18,15.836 C139.208,17.502 140.272,18.188 141.504,18.188 C142.386,18.188 142.918,18.034 143.38,17.838 L143.59,18.72 C143.156,18.916 142.414,19.14 141.336,19.14 C139.25,19.14 138.004,17.768 138.004,15.724 C138.004,13.68 139.208,12.07 141.182,12.07 C143.394,12.07 143.982,14.016 143.982,15.262 C143.982,15.514 143.954,15.71 143.94,15.836 Z M139.194,14.954 L142.792,14.954 C142.806,14.17 142.47,12.952 141.084,12.952 C139.838,12.952 139.292,14.1 139.194,14.954 Z M54.76,41.4520057 L48.768,41.4520057 L47.144,46.8000057 L43.588,46.8000057 L49.636,27.9280057 L54.032,27.9280057 L60.164,46.8000057 L56.468,46.8000057 L54.76,41.4520057 Z M49.328,38.8480057 L54.172,38.8480057 L52.688,34.2000057 C52.324,33.0520057 52.016,31.7640057 51.736,30.6720057 L51.68,30.6720057 C51.4,31.7640057 51.12,33.0800057 50.784,34.2000057 L49.328,38.8480057 Z M62.516,52.3440057 L62.516,37.7000057 C62.516,35.9080057 62.46,34.4520057 62.404,33.1640057 L65.428,33.1640057 L65.596,35.2640057 L65.652,35.2640057 C66.66,33.7240057 68.256,32.8560057 70.328,32.8560057 C73.464,32.8560057 76.068,35.5440057 76.068,39.8000057 C76.068,44.7280057 72.96,47.1080057 69.852,47.1080057 C68.144,47.1080057 66.716,46.3800057 66.016,45.2880057 L65.96,45.2880057 L65.96,52.3440057 L62.516,52.3440057 Z M65.96,38.9880057 L65.96,41.0880057 C65.96,41.4240057 65.988,41.7320057 66.072,42.0400057 C66.408,43.4400057 67.64,44.4480057 69.096,44.4480057 C71.28,44.4480057 72.568,42.6280057 72.568,39.9400057 C72.568,37.5320057 71.392,35.5720057 69.18,35.5720057 C67.752,35.5720057 66.436,36.6080057 66.1,38.1200057 C66.016,38.4000057 65.96,38.7080057 65.96,38.9880057 Z M78.896,52.3440057 L78.896,37.7000057 C78.896,35.9080057 78.84,34.4520057 78.784,33.1640057 L81.808,33.1640057 L81.976,35.2640057 L82.032,35.2640057 C83.04,33.7240057 84.636,32.8560057 86.708,32.8560057 C89.844,32.8560057 92.448,35.5440057 92.448,39.8000057 C92.448,44.7280057 89.34,47.1080057 86.232,47.1080057 C84.524,47.1080057 83.096,46.3800057 82.396,45.2880057 L82.34,45.2880057 L82.34,52.3440057 L78.896,52.3440057 Z M82.34,38.9880057 L82.34,41.0880057 C82.34,41.4240057 82.368,41.7320057 82.452,42.0400057 C82.788,43.4400057 84.02,44.4480057 85.476,44.4480057 C87.66,44.4480057 88.948,42.6280057 88.948,39.9400057 C88.948,37.5320057 87.772,35.5720057 85.56,35.5720057 C84.132,35.5720057 82.816,36.6080057 82.48,38.1200057 C82.396,38.4000057 82.34,38.7080057 82.34,38.9880057 Z M100.372,45.9040057 L101.128,43.0480057 C102.248,43.6920057 103.928,44.2520057 105.692,44.2520057 C107.904,44.2520057 109.136,43.2160057 109.136,41.6760057 C109.136,40.2480057 108.184,39.4080057 105.776,38.5400057 C102.668,37.4200057 100.68,35.7680057 100.68,33.0520057 C100.68,29.9720057 103.256,27.6200057 107.344,27.6200057 C109.388,27.6200057 110.9,28.0680057 111.88,28.5720057 L111.04,31.3440057 C110.368,30.9800057 109.052,30.4480057 107.288,30.4480057 C105.104,30.4480057 104.152,31.6240057 104.152,32.7160057 C104.152,34.1720057 105.244,34.8440057 107.764,35.8240057 C111.04,37.0560057 112.636,38.7080057 112.636,41.4240057 C112.636,44.4480057 110.34,47.0800057 105.468,47.0800057 C103.48,47.0800057 101.408,46.5200057 100.372,45.9040057 Z M116.08,30.0840057 L119.44,29.2720057 L119.44,33.1640057 L122.716,33.1640057 L122.716,35.7400057 L119.44,35.7400057 L119.44,41.7600057 C119.44,43.4120057 119.888,44.2800057 121.204,44.2800057 C121.792,44.2800057 122.24,44.1960057 122.548,44.1120057 L122.604,46.7440057 C122.1,46.9400057 121.204,47.0800057 120.112,47.0800057 C118.852,47.0800057 117.788,46.6600057 117.144,45.9600057 C116.416,45.1760057 116.08,43.9440057 116.08,42.1520057 L116.08,35.7400057 L114.12,35.7400057 L114.12,33.1640057 L116.08,33.1640057 L116.08,30.0840057 Z M131.34,32.8560057 C135.4,32.8560057 138.116,35.7120057 138.116,39.8560057 C138.116,44.8680057 134.588,47.1080057 131.116,47.1080057 C127.252,47.1080057 124.284,44.4480057 124.284,40.0800057 C124.284,35.6000057 127.224,32.8560057 131.34,32.8560057 Z M131.256,35.3760057 C128.82,35.3760057 127.84,37.7280057 127.84,39.9960057 C127.84,42.6280057 129.128,44.6160057 131.228,44.6160057 C133.188,44.6160057 134.56,42.6840057 134.56,39.9400057 C134.56,37.8120057 133.608,35.3760057 131.256,35.3760057 Z M140.944,46.8000057 L140.944,37.5600057 C140.944,35.7120057 140.916,34.3960057 140.832,33.1640057 L143.828,33.1640057 L143.94,35.7680057 L144.052,35.7680057 C144.724,33.8360057 146.32,32.8560057 147.776,32.8560057 C148.112,32.8560057 148.308,32.8840057 148.588,32.9400057 L148.588,36.1880057 C148.308,36.1320057 148,36.0760057 147.58,36.0760057 C145.928,36.0760057 144.808,37.1400057 144.5,38.6800057 C144.444,38.9880057 144.388,39.3520057 144.388,39.7440057 L144.388,46.8000057 L140.944,46.8000057 Z M162.224,40.9480057 L153.096,40.9480057 C153.18,43.4120057 155.112,44.4760057 157.296,44.4760057 C158.892,44.4760057 160.04,44.2520057 161.076,43.8600057 L161.58,46.2400057 C160.404,46.7160057 158.78,47.0800057 156.82,47.0800057 C152.396,47.0800057 149.792,44.3640057 149.792,40.1920057 C149.792,36.4120057 152.088,32.8560057 156.456,32.8560057 C160.88,32.8560057 162.336,36.4960057 162.336,39.4920057 C162.336,40.1360057 162.28,40.6400057 162.224,40.9480057 Z M153.096,38.5400057 L159.088,38.5400057 C159.116,37.2800057 158.556,35.2080057 156.26,35.2080057 C154.132,35.2080057 153.236,37.1400057 153.096,38.5400057 Z" id="Download-on-the" fill="#FFFFFF"></path>
                        <path d="M26.6886857,29.2488095 C29.9314286,29.2488095 32.0050286,32.3863333 32.0050286,32.3863333 C32.0050286,32.3863333 28.8418286,34.1028571 28.8418286,37.8307381 C28.8418286,42.2553095 32.8155429,43.5423571 32.8155429,43.5423571 C32.8155429,43.5423571 29.6790857,50.9843095 26.1572571,50.9843095 C24.1769143,50.9843095 24.0445714,49.8450238 21.4128,49.8450238 C19.1273143,49.8450238 18.3565714,50.9843095 16.6155429,50.9843095 C13.2925714,50.9843095 9,43.7301667 9,37.8307381 C9,31.7027619 13.3460571,29.2488095 16.0704,29.2488095 C18.4628571,29.2488095 19.4592,30.6566905 21.3860571,30.6566905 C23.0077714,30.6566905 24.2838857,29.2488095 26.6886857,29.2488095 L26.6886857,29.2488095 Z M26.1312,23 C26.6091429,26.0035714 23.8848,29.7183333 20.6290286,29.5975 C20.1504,25.7757143 23.6592,23.201619 26.1312,23 L26.1312,23 Z" id="Imported-Layers" fill="#FFFFFF"></path>
                    </g>
                </g>
            </g>
        </g>
    </g>
</svg>