<?xml version="1.0" encoding="UTF-8"?>
<svg width="60px" height="38px" viewBox="0 0 60 38" version="1.1" xmlns="http://www.w3.org/2000/svg" xmlns:xlink="http://www.w3.org/1999/xlink">
    <!-- Generator: Sketch 51 (57462) - http://www.bohemiancoding.com/sketch -->
    <title>buy</title>
    <desc>Created with Sketch.</desc>
    <defs></defs>
    <g id="landing-page" stroke="none" stroke-width="1" fill="none" fill-rule="evenodd">
        <g transform="translate(-525.000000, -1874.000000)" fill-rule="nonzero" id="section-features">
            <g transform="translate(0.000000, 1348.000000)">
                <g id="image8" transform="translate(509.000000, 216.000000)">
                    <g id="buy" transform="translate(46.000000, 329.000000) rotate(-15.000000) translate(-46.000000, -329.000000) translate(16.000000, 315.000000)">
                        <rect id="Rectangle-6" fill="#FFFFFF" x="8" y="3" width="45" height="21"></rect>
                        <path d="M19.6278151,9.92727273 C19.6278151,8.32274545 18.332395,7.0182 16.7398739,7.0182 L11.5605882,7.0182 L11.5605882,12.8363455 L16.7398739,12.8363455 C18.332395,12.8363455 19.6278151,11.5318 19.6278151,9.92727273 Z" id="Shape" fill="#31E981"></path>
                        <path d="M11.5605882,20.9818 L16.7398739,20.9818 C18.332395,20.9818 19.6278151,19.6772545 19.6278151,18.0727273 C19.6278151,16.4682 18.332395,15.1636545 16.7398739,15.1636545 L11.5605882,15.1636545 L11.5605882,20.9818 Z" id="Shape" fill="#31E981"></path>
                        <path d="M46.1310504,0.0364 L13.8689496,0.0364 C6.24176471,0.0364 0.0360504202,6.3 0.0360504202,14 C0.0360504202,21.7 6.24176471,27.9636 13.8689496,27.9636 L46.1311765,27.9636 C53.7583613,27.9636 59.9640756,21.7 59.9640756,14 C59.9640756,6.3 53.7582353,0.0364 46.1310504,0.0364 Z M21.9327731,18.0727273 C21.9327731,20.9602909 19.6031092,23.3091091 16.74,23.3091091 L10.4082353,23.3091091 C9.77130252,23.3091091 9.2557563,22.7886909 9.2557563,22.1454545 L9.2557563,14 L9.2557563,5.85454545 C9.2557563,5.21143636 9.77117647,4.69089091 10.4082353,4.69089091 L16.74,4.69089091 C19.6031092,4.69089091 21.9327731,7.03970909 21.9327731,9.92727273 C21.9327731,11.5806727 21.1539076,13.0396 19.9634874,14 C21.1539076,14.9604 21.9327731,16.4193273 21.9327731,18.0727273 Z M38.0672269,17.2579273 C38.0672269,20.5942545 35.2231513,23.3091091 31.7286555,23.3091091 C28.2341597,23.3091091 25.390084,20.5943818 25.390084,17.2579273 L25.390084,5.85454545 C25.390084,5.21143636 25.9055042,4.69089091 26.542563,4.69089091 C27.1796218,4.69089091 27.695042,5.21130909 27.695042,5.85454545 L27.695042,17.2579273 C27.695042,19.3113455 29.5047479,20.9818 31.7286555,20.9818 C33.952563,20.9818 35.7622689,19.3113455 35.7622689,17.2579273 L35.7622689,5.85454545 C35.7622689,5.21143636 36.2776891,4.69089091 36.9147479,4.69089091 C37.5518067,4.69089091 38.0672269,5.21143636 38.0672269,5.85454545 L38.0672269,17.2579273 Z M52.047605,6.68754545 L47.2869328,16.0266909 L47.2869328,22.1454545 C47.2869328,22.7885636 46.7715126,23.3091091 46.1344538,23.3091091 C45.497395,23.3091091 44.9819748,22.7886909 44.9819748,22.1454545 L44.9819748,16.0266909 L40.2213025,6.68754545 C39.9298739,6.11596364 40.152605,5.41367273 40.7176891,5.12056364 C41.2837815,4.82401818 41.9793277,5.05005455 42.2696218,5.62176364 L46.1344538,13.2022545 L49.9992857,5.62150909 C50.2885714,5.04992727 50.9862605,4.82261818 51.5512185,5.12030909 C52.1161765,5.41367273 52.3390336,6.11583636 52.047605,6.68754545 Z" id="Shape" fill="#31E981"></path>
                    </g>
                </g>
            </g>
        </g>
    </g>
</svg>