<?xml version="1.0" encoding="UTF-8"?>
<svg width="948px" height="240px" viewBox="0 0 948 240" version="1.1" xmlns="http://www.w3.org/2000/svg" xmlns:xlink="http://www.w3.org/1999/xlink">
    <!-- Generator: Sketch 51.1 (57501) - http://www.bohemiancoding.com/sketch -->
    <title>logo</title>
    <desc>Created with Sketch.</desc>
    <defs>
        <linearGradient x1="0%" y1="27.1620834%" x2="100%" y2="69.381654%" id="linearGradient-1">
            <stop stop-color="#9A84FF" offset="0%"></stop>
            <stop stop-color="#575EF3" offset="100%"></stop>
        </linearGradient>
        <linearGradient x1="0%" y1="50%" x2="100%" y2="50%" id="linearGradient-2">
            <stop stop-color="#FFFFFF" stop-opacity="0.35" offset="0%"></stop>
            <stop stop-color="#FFFFFF" stop-opacity="0.25" offset="100%"></stop>
        </linearGradient>
        <linearGradient x1="0%" y1="50%" x2="100%" y2="50%" id="linearGradient-3">
            <stop stop-color="#FFFFFF" stop-opacity="0.7" offset="0%"></stop>
            <stop stop-color="#FFFFFF" stop-opacity="0.5" offset="100%"></stop>
        </linearGradient>
        <linearGradient x1="0%" y1="50%" x2="100%" y2="50%" id="linearGradient-4">
            <stop stop-color="#FFFFFF" stop-opacity="0.95" offset="0%"></stop>
            <stop stop-color="#FFFFFF" stop-opacity="0.7" offset="100%"></stop>
        </linearGradient>
    </defs>
    <g id="Logo-+-icon" stroke="none" stroke-width="1" fill="none" fill-rule="evenodd">
        <g id="logo-copy" transform="translate(-293.000000, -196.000000)">
            <g id="logo" transform="translate(293.000000, 196.000000)">
                <g id="coins">
                    <circle id="Oval" fill="url(#linearGradient-1)" cx="120" cy="120" r="120"></circle>
                    <circle id="Oval-3" fill="url(#linearGradient-2)" cx="197.142857" cy="120" r="42.8571429"></circle>
                    <circle id="Oval-3" fill="url(#linearGradient-3)" cx="165.306122" cy="120" r="56.9387755"></circle>
                    <circle id="Oval-3" fill="url(#linearGradient-4)" cx="120" cy="120" r="74.0816327"></circle>
                </g>
                <path d="M382.371737,88.4169492 C381.865195,89.1129978 381.358661,89.6508456 380.85212,90.0305085 C380.345579,90.4101714 379.649095,90.6 378.762647,90.6 C377.812882,90.6 376.768156,90.2045237 375.628438,89.4135593 C374.48872,88.6225949 373.079923,87.7525471 371.402005,86.8033898 C369.724087,85.8542325 367.666293,84.9841847 365.228563,84.1932203 C362.790832,83.4022559 359.799117,83.0067797 356.253328,83.0067797 C351.504502,83.0067797 347.325599,83.8451894 343.716491,85.5220339 C340.107384,87.1988784 337.084011,89.6191932 334.64628,92.7830508 C332.20855,95.9469085 330.372365,99.7751188 329.137671,104.267797 C327.902976,108.760474 327.285638,113.790933 327.285638,119.359322 C327.285638,125.18082 327.950463,130.35365 329.280135,134.877966 C330.609806,139.402283 332.493478,143.198855 334.931208,146.267797 C337.368939,149.336739 340.313166,151.677958 343.763979,153.291525 C347.214793,154.905093 351.092942,155.711864 355.398543,155.711864 C359.514192,155.711864 362.901637,155.221474 365.560979,154.240678 C368.220321,153.259882 370.420577,152.168368 372.161813,150.966102 C373.903049,149.763836 375.359334,148.672321 376.530711,147.691525 C377.702088,146.71073 378.857618,146.220339 379.997336,146.220339 C381.390325,146.220339 382.466709,146.758187 383.226521,147.833898 L387.975323,154.00339 C385.885839,156.597753 383.511462,158.81242 380.85212,160.647458 C378.192778,162.482495 375.327696,164.016943 372.256789,165.250847 C369.185882,166.484752 365.972558,167.386438 362.616722,167.955932 C359.260885,168.525427 355.841782,168.810169 352.35931,168.810169 C346.344132,168.810169 340.756431,167.702836 335.596041,165.488136 C330.43565,163.273435 325.955992,160.062168 322.156932,155.854237 C318.357872,151.646307 315.381986,146.473477 313.229185,140.335593 C311.076384,134.197709 310,127.205689 310,119.359322 C310,112.209004 310.997238,105.596641 312.991745,99.5220339 C314.986252,93.4474273 317.898821,88.2113214 321.72954,83.8135593 C325.560259,79.4157972 330.277355,75.9830632 335.880969,73.5152542 C341.484583,71.0474453 347.927059,69.8135593 355.208591,69.8135593 C361.983582,69.8135593 367.951183,70.9050738 373.111573,73.0881356 C378.271964,75.2711974 382.846597,78.3559123 386.83561,82.3423729 L382.371737,88.4169492 Z M434.256752,69.8135593 C441.285013,69.8135593 447.616685,70.9841691 453.251958,73.3254237 C458.887231,75.6666784 463.699302,78.9886791 467.688315,83.2915254 C471.677328,87.5943718 474.73236,92.7988395 476.853502,98.9050847 C478.974644,105.01133 480.035199,111.829341 480.035199,119.359322 C480.035199,126.95258 478.974644,133.78641 476.853502,139.861017 C474.73236,145.935624 471.677328,151.124272 467.688315,155.427119 C463.699302,159.729965 458.887231,163.036147 453.251958,165.345763 C447.616685,167.655379 441.285013,168.810169 434.256752,168.810169 C427.165172,168.810169 420.786013,167.655379 415.119081,165.345763 C409.45215,163.036147 404.62425,159.729965 400.635236,155.427119 C396.646223,151.124272 393.591191,145.935624 391.470049,139.861017 C389.348907,133.78641 388.288352,126.95258 388.288352,119.359322 C388.288352,111.829341 389.348907,105.01133 391.470049,98.9050847 C393.591191,92.7988395 396.646223,87.5943718 400.635236,83.2915254 C404.62425,78.9886791 409.45215,75.6666784 415.119081,73.3254237 C420.786013,70.9841691 427.165172,69.8135593 434.256752,69.8135593 Z M434.256752,155.616949 C443.754402,155.616949 450.845875,152.43732 455.531383,146.077966 C460.216891,139.718612 462.559609,130.844125 462.559609,119.454237 C462.559609,108.001073 460.216891,99.079128 455.531383,92.6881356 C450.845875,86.2971432 443.754402,83.1016949 434.256752,83.1016949 C429.444609,83.1016949 425.249876,83.9242856 421.672427,85.5694915 C418.094979,87.2146975 415.119093,89.5875551 412.74468,92.6881356 C410.370268,95.7887161 408.597399,99.6011073 407.426023,104.125424 C406.254646,108.64974 405.668966,113.759294 405.668966,119.454237 C405.668966,130.844125 408.027514,139.718612 412.74468,146.077966 C417.461847,152.43732 424.632466,155.616949 434.256752,155.616949 Z M490.6,135.697432 C490.6,147.926214 490.6,158.52207 490.6,167.485 L507.605,167.485 L507.605,71.25 L497.915,71.25 C496.078324,71.25 494.81167,71.5983299 494.115,72.295 C493.41833,72.9916702 492.943335,74.1949915 492.69,75.905 C491.296667,86.4045202 490.6,106.335331 490.6,135.697432 Z M536.540895,85.2847458 C538.630378,82.9434911 540.846463,80.8237383 543.189217,78.9254237 C545.531971,77.0271092 548.017152,75.3977469 550.644836,74.0372881 C553.272519,72.6768294 556.058455,71.632772 559.002727,70.9050847 C561.946998,70.1773975 565.128664,69.8135593 568.547818,69.8135593 C573.803185,69.8135593 578.441135,70.6836071 582.461807,72.4237288 C586.482479,74.1638505 589.838265,76.6316224 592.529266,79.8271186 C595.220267,83.0226148 597.262231,86.8666442 598.65522,91.359322 C600.048209,95.8519999 600.744693,100.819182 600.744693,106.261017 L600.744693,167.481356 L583.743983,167.481356 L583.743983,106.261017 C583.743983,98.9841444 582.081919,93.3367433 578.757741,89.3186441 C575.433564,85.3005449 570.384055,83.2915254 563.609064,83.2915254 C558.606968,83.2915254 553.93736,84.4937733 549.600099,86.8983051 C545.262839,89.3028369 541.258056,92.5615614 537.585631,96.6745763 L537.585631,167.481356 L520.584922,167.481356 L520.584922,71.3322034 L530.747357,71.3322034 C533.153429,71.3322034 534.641372,72.5028132 535.211231,74.8440678 L536.540895,85.2847458 Z M672.909842,87.1830508 C672.15003,88.5751482 670.978671,89.2711864 669.395729,89.2711864 C668.445964,89.2711864 667.36958,88.9231673 666.166544,88.2271186 C664.963508,87.53107 663.491395,86.7559365 661.750159,85.9016949 C660.008923,85.0474534 657.9353,84.2565008 655.529229,83.5288136 C653.123157,82.8011263 650.273905,82.4372881 646.981386,82.4372881 C644.13209,82.4372881 641.567763,82.8011263 639.288327,83.5288136 C637.008891,84.2565008 635.061902,85.253101 633.447301,86.5186441 C631.8327,87.7841871 630.598024,89.2553588 629.743236,90.9322034 C628.888447,92.6090479 628.461059,94.4282388 628.461059,96.3898305 C628.461059,98.8576395 629.173372,100.914116 630.59802,102.559322 C632.022668,104.204528 633.90634,105.628243 636.249094,106.830508 C638.591848,108.032774 641.25115,109.092651 644.227081,110.010169 C647.203011,110.927688 650.258043,111.908469 653.392268,112.952542 C656.526493,113.996615 659.581524,115.151406 662.557455,116.416949 C665.533386,117.682492 668.192688,119.264397 670.535442,121.162712 C672.878196,123.061026 674.761868,125.386427 676.186516,128.138983 C677.611163,130.891539 678.323476,134.197721 678.323476,138.057627 C678.323476,142.487028 677.532017,146.584162 675.949076,150.349153 C674.366134,154.114143 672.023415,157.372868 668.920849,160.125424 C665.818283,162.87798 662.01928,165.04519 657.523725,166.627119 C653.028171,168.209047 647.836199,169 641.947656,169 C635.235983,169 629.157578,167.908485 623.712258,165.725424 C618.266938,163.542362 613.644817,160.74239 609.845757,157.325424 L613.83475,150.871186 C614.341292,150.048583 614.942801,149.415821 615.639295,148.972881 C616.335789,148.529941 617.222223,148.308475 618.298624,148.308475 C619.438342,148.308475 620.64136,148.751408 621.907713,149.637288 C623.174067,150.523168 624.709497,151.503949 626.514051,152.579661 C628.318604,153.655373 630.51886,154.636154 633.114885,155.522034 C635.710909,156.407914 638.940062,156.850847 642.80244,156.850847 C646.094959,156.850847 648.97587,156.423733 651.445259,155.569492 C653.914648,154.71525 655.972442,153.560459 657.618701,152.105085 C659.264961,150.64971 660.483808,148.972891 661.275279,147.074576 C662.066749,145.176262 662.462479,143.151423 662.462479,141 C662.462479,138.34236 661.750166,136.143512 660.325518,134.40339 C658.900871,132.663268 657.017198,131.176277 654.674444,129.942373 C652.33169,128.708468 649.656559,127.632773 646.64897,126.715254 C643.64138,125.797736 640.570519,124.832773 637.436294,123.820339 C634.30207,122.807905 631.231209,121.653114 628.223619,120.355932 C625.21603,119.058751 622.540898,117.429388 620.198145,115.467797 C617.855391,113.506205 615.971718,111.08589 614.547071,108.20678 C613.122423,105.327669 612.41011,101.831659 612.41011,97.7186441 C612.41011,94.0485692 613.169911,90.5209209 614.689535,87.1355932 C616.209159,83.7502656 618.425244,80.776284 621.337857,78.2135593 C624.25047,75.6508346 627.827865,73.6101771 632.070149,72.0915254 C636.312433,70.5728738 641.156162,69.8135593 646.601482,69.8135593 C652.933249,69.8135593 658.615924,70.8101595 663.649679,72.8033898 C668.683434,74.7966201 673.036459,77.5333159 676.708884,81.0135593 L672.909842,87.1830508 Z M745.560879,124.2 C737.772805,124.453109 731.140379,125.070052 725.6634,126.050847 C720.186422,127.031643 715.722593,128.312986 712.27178,129.894915 C708.820967,131.476844 706.319956,133.343492 704.768673,135.494915 C703.21739,137.646338 702.44176,140.050834 702.44176,142.708475 C702.44176,145.239561 702.853319,147.42259 703.676449,149.257627 C704.499578,151.092665 705.62345,152.595474 707.048098,153.766102 C708.472745,154.936729 710.150639,155.790958 712.081828,156.328814 C714.013017,156.866669 716.086639,157.135593 718.302758,157.135593 C721.278688,157.135593 724.001307,156.835031 726.470696,156.233898 C728.940086,155.632765 731.266975,154.762718 733.451435,153.623729 C735.635894,152.48474 737.725346,151.124302 739.719853,149.542373 C741.71436,147.960444 743.661349,146.157072 745.560879,144.132203 L745.560879,124.2 Z M690.94966,84.9050847 C696.268345,79.7796354 701.998508,75.9514251 708.140322,73.420339 C714.282136,70.8892529 721.088684,69.6237288 728.560169,69.6237288 C733.942171,69.6237288 738.722584,70.5095957 742.90155,72.2813559 C747.080516,74.0531162 750.594594,76.5208881 753.44389,79.6847458 C756.293185,82.8486034 758.445953,86.6768137 759.90226,91.1694915 C761.358566,95.6621694 762.086709,100.597713 762.086709,105.976271 L762.086709,167.481356 L754.583602,167.481356 C752.937343,167.481356 751.671008,167.212432 750.784561,166.674576 C749.898113,166.13672 749.201629,165.076844 748.695088,163.494915 L746.795567,154.383051 C744.26286,156.724305 741.793508,158.796601 739.387437,160.6 C736.981365,162.403399 734.448696,163.922028 731.789354,165.155932 C729.130012,166.389837 726.296589,167.33898 723.288999,168.00339 C720.28141,168.6678 716.941453,169 713.269028,169 C709.533285,169 706.019207,168.477971 702.726688,167.433898 C699.434169,166.389825 696.569088,164.823739 694.131357,162.735593 C691.693627,160.647447 689.762467,158.005666 688.337819,154.810169 C686.913172,151.614673 686.200859,147.83392 686.200859,143.467797 C686.200859,139.671167 687.245585,136.016967 689.335068,132.505085 C691.424551,128.993203 694.811996,125.87685 699.497503,123.155932 C704.183011,120.435015 710.293075,118.204528 717.827877,116.464407 C725.36268,114.724285 734.606922,113.727685 745.560879,113.474576 L745.560879,105.976271 C745.560879,98.5095672 743.946303,92.862166 740.717101,89.0338983 C737.4879,85.2056306 732.770804,83.2915254 726.565672,83.2915254 C722.386706,83.2915254 718.888457,83.8135541 716.070821,84.8576271 C713.253185,85.9017001 710.815491,87.0723099 708.757666,88.3694915 C706.699842,89.6666732 704.926974,90.8372829 703.439009,91.8813559 C701.951043,92.9254289 700.47893,93.4474576 699.022623,93.4474576 C697.882905,93.4474576 696.901496,93.1468957 696.078366,92.5457627 C695.255236,91.9446298 694.558752,91.2011344 693.988893,90.3152542 L690.94966,84.9050847 Z M790.076997,85.2847458 C792.16648,82.9434911 794.382565,80.8237383 796.725319,78.9254237 C799.068073,77.0271092 801.553254,75.3977469 804.180937,74.0372881 C806.808621,72.6768294 809.594556,71.632772 812.538828,70.9050847 C815.4831,70.1773975 818.664765,69.8135593 822.083919,69.8135593 C827.339286,69.8135593 831.977236,70.6836071 835.997908,72.4237288 C840.01858,74.1638505 843.374367,76.6316224 846.065368,79.8271186 C848.756369,83.0226148 850.798333,86.8666442 852.191322,91.359322 C853.58431,95.8519999 854.280794,100.819182 854.280794,106.261017 L854.280794,167.481356 L837.280085,167.481356 L837.280085,106.261017 C837.280085,98.9841444 835.618021,93.3367433 832.293843,89.3186441 C828.969665,85.3005449 823.920157,83.2915254 817.145166,83.2915254 C812.14307,83.2915254 807.473461,84.4937733 803.136201,86.8983051 C798.79894,89.3028369 794.794158,92.5615614 791.121733,96.6745763 L791.121733,167.481356 L774.121023,167.481356 L774.121023,71.3322034 L784.283459,71.3322034 C786.68953,71.3322034 788.177473,72.5028132 788.747332,74.8440678 L790.076997,85.2847458 Z M932.803835,108.918644 C932.803835,104.995461 932.249814,101.404536 931.141754,98.1457627 C930.033695,94.8869894 928.419119,92.0711983 926.297977,89.6983051 C924.176835,87.3254119 921.596678,85.490402 918.55743,84.1932203 C915.518182,82.8960387 912.06742,82.2474576 908.205042,82.2474576 C900.100381,82.2474576 893.689562,84.6044962 888.972396,89.3186441 C884.255229,94.0327919 881.326831,100.56606 880.187113,108.918644 L932.803835,108.918644 Z M946.480383,154.00339 C944.3909,156.534476 941.88989,158.733324 938.977277,160.6 C936.064664,162.466676 932.946315,164.001124 929.622138,165.20339 C926.29796,166.405656 922.863028,167.307342 919.317238,167.908475 C915.771449,168.509608 912.257371,168.810169 908.774899,168.810169 C902.126543,168.810169 896.00065,167.687017 890.397036,165.440678 C884.793422,163.194339 879.949693,159.903976 875.865703,155.569492 C871.781714,151.235007 868.600048,145.872348 866.320612,139.481356 C864.041176,133.090364 862.901475,125.750324 862.901475,117.461017 C862.901475,110.753639 863.930372,104.489295 865.988196,98.6677966 C868.04602,92.8462986 871.006077,87.8000214 874.868455,83.5288136 C878.730833,79.2576058 883.447929,75.903967 889.019884,73.4677966 C894.591839,71.0316262 900.860194,69.8135593 907.825138,69.8135593 C913.587046,69.8135593 918.92148,70.7785214 923.8286,72.7084746 C928.735719,74.6384277 932.97794,77.4225807 936.555388,81.0610169 C940.132837,84.6994532 942.934601,89.1920637 944.960767,94.5389831 C946.986932,99.8859024 948,105.976237 948,112.810169 C948,115.46781 947.715075,117.239544 947.145216,118.125424 C946.575357,119.011304 945.498972,119.454237 943.916031,119.454237 L879.617257,119.454237 C879.80721,125.528844 880.646156,130.812407 882.134122,135.305085 C883.622087,139.797763 885.695709,143.546878 888.355052,146.552542 C891.014394,149.558207 894.18023,151.804512 897.852655,153.291525 C901.52508,154.778539 905.640667,155.522034 910.199539,155.522034 C914.441823,155.522034 918.098364,155.031643 921.169271,154.050847 C924.240178,153.070052 926.883651,152.010175 929.09977,150.871186 C931.315888,149.732198 933.167902,148.672321 934.655867,147.691525 C936.143833,146.71073 937.425996,146.220339 938.502397,146.220339 C939.895386,146.220339 940.97177,146.758187 941.731582,147.833898 L946.480383,154.00339 Z" id="coinsane" fill="#FFFFFF"></path>
            </g>
        </g>
    </g>
</svg>