<?xml version="1.0" encoding="UTF-8"?>
<svg width="23px" height="20px" viewBox="0 0 23 20" version="1.1" xmlns="http://www.w3.org/2000/svg" xmlns:xlink="http://www.w3.org/1999/xlink">
    <!-- Generator: Sketch 51 (57462) - http://www.bohemiancoding.com/sketch -->
    <title>telegram</title>
    <desc>Created with Sketch.</desc>
    <defs></defs>
    <g id="landing-page" stroke="none" stroke-width="1" fill="none" fill-rule="evenodd">
        <g transform="translate(-1218.000000, -633.000000)" fill="#8D8A96" fill-rule="nonzero" id="navbar-dark">
            <g transform="translate(0.000000, 598.000000)">
                <path d="M1218.40625,44.5899273 C1217.86797,44.3884725 1217.86329,43.629514 1218.40004,43.4227758 L1240.15002,35.0429145 C1240.61109,34.8648134 1241.08688,35.268259 1240.98645,35.7518731 L1237.08327,54.5030964 C1236.99127,54.9458222 1236.47155,55.1465879 1236.10469,54.8802786 L1230.77651,51.0168027 C1230.4529,50.7821932 1230.01183,50.7947506 1229.70218,51.0467414 L1226.74805,53.4519479 C1226.40512,53.7319632 1225.88846,53.5759908 1225.75721,53.1540153 L1223.70592,46.5654249 L1218.40625,44.5899273 Z M1225.42662,45.513817 C1225.02964,45.7585337 1224.84273,46.2373238 1224.97099,46.6855627 L1226.09087,50.615501 C1226.17037,50.8939849 1226.57509,50.8654244 1226.61366,50.5776756 L1226.90484,48.4225457 C1226.95973,48.016803 1227.15354,47.6429898 1227.454,47.3636637 L1236.00196,39.427983 C1236.16181,39.2798972 1235.9703,39.028519 1235.78415,39.1426844 L1225.42662,45.513817 Z" id="telegram"></path>
            </g>
        </g>
    </g>
</svg>