<?xml version="1.0" encoding="UTF-8"?>
<svg width="24px" height="20px" viewBox="0 0 24 20" version="1.1" xmlns="http://www.w3.org/2000/svg" xmlns:xlink="http://www.w3.org/1999/xlink">
    <!-- Generator: Sketch 51 (57462) - http://www.bohemiancoding.com/sketch -->
    <title>twitter</title>
    <desc>Created with Sketch.</desc>
    <defs></defs>
    <g id="landing-page" stroke="none" stroke-width="1" fill="none" fill-rule="evenodd">
        <g transform="translate(-1281.000000, -634.000000)" fill="#8D8A96" fill-rule="nonzero" id="navbar-dark">
            <g transform="translate(0.000000, 598.000000)">
                <path d="M1305,38.3663147 C1304.11667,38.7678685 1303.16886,39.0401976 1302.17301,39.1617782 C1303.18984,38.5370988 1303.96819,37.5462696 1304.3371,36.3692476 C1303.38329,36.9477409 1302.33047,37.3678013 1301.20866,37.5955133 C1300.31035,36.6123685 1299.03258,36 1297.61532,36 C1294.89634,36 1292.69174,38.261712 1292.69174,41.0496159 C1292.69174,41.4450142 1292.73523,41.8311994 1292.81923,42.2004872 C1288.72801,41.9896725 1285.1002,39.9787656 1282.67216,36.923119 C1282.24773,37.6678099 1282.00628,38.5355297 1282.00628,39.4617868 C1282.00628,41.2142445 1282.87612,42.7605141 1284.19589,43.6651667 C1283.38902,43.6374872 1282.63016,43.4097751 1281.96581,43.0312742 L1281.96581,43.0943577 C1281.96581,45.5406935 1283.66349,47.5823777 1285.91456,48.0470551 C1285.50213,48.1609112 1285.06722,48.2239947 1284.6173,48.2239947 C1284.29938,48.2239947 1283.99193,48.1916885 1283.69047,48.1301338 C1284.31734,50.1379831 1286.13503,51.5980761 1288.28864,51.6381068 C1286.60444,52.9920683 1284.48083,53.7967448 1282.17428,53.7967448 C1281.77686,53.7967448 1281.38541,53.772123 1281,53.7275059 C1283.1791,55.1630173 1285.76613,56 1288.5466,56 C1297.6034,56 1302.554,48.3040157 1302.554,41.6296782 L1302.53749,40.9757905 C1303.50478,40.2679922 1304.34161,39.3787081 1305,38.3663147 Z" id="twitter"></path>
            </g>
        </g>
    </g>
</svg>