<?xml version="1.0" encoding="UTF-8"?>
<svg width="51px" height="51px" viewBox="0 0 51 51" version="1.1" xmlns="http://www.w3.org/2000/svg" xmlns:xlink="http://www.w3.org/1999/xlink">
    <!-- Generator: Sketch 51 (57462) - http://www.bohemiancoding.com/sketch -->
    <title>twitter</title>
    <desc>Created with Sketch.</desc>
    <defs>
        <linearGradient x1="-10.9697779%" y1="34.6425952%" x2="72.9222544%" y2="113.73184%" id="linearGradient-1">
            <stop stop-color="#9A84FF" offset="0%"></stop>
            <stop stop-color="#575EF3" offset="100%"></stop>
        </linearGradient>
    </defs>
    <g id="landing-page" stroke="none" stroke-width="1" fill="none" fill-rule="evenodd">
        <g transform="translate(-850.000000, -1948.000000)" id="section-features">
            <g transform="translate(0.000000, 1348.000000)">
                <g id="image6" transform="translate(509.000000, 216.000000)">
                    <g id="twitter" transform="translate(341.000000, 384.000000)">
                        <circle id="Oval-5" fill="url(#linearGradient-1)" cx="25.5" cy="25.5" r="25.5"></circle>
                        <path d="M38.0005,18.3663147 C37.1171468,18.7678685 36.1693216,19.0401976 35.1734561,19.1617782 C36.1903025,18.5370988 36.9686729,17.5462696 37.3375831,16.3692476 C36.3837578,16.9477409 35.3309106,17.3678013 34.2090815,17.5955133 C33.3107476,16.6123685 32.0329542,16 30.6156674,16 C27.8966259,16 25.6919882,18.261712 25.6919882,21.0496159 C25.6919882,21.4450142 25.7354793,21.8311994 25.8194812,22.2004872 C21.7281736,21.9896725 18.1002882,19.9787656 15.6721944,16.923119 C15.2477535,17.6678099 15.0062971,18.5355297 15.0062971,19.4617868 C15.0062971,21.2142445 15.8761598,22.7605141 17.1959542,23.6651667 C16.3890733,23.6374872 15.6301935,23.4097751 14.9658256,23.0312742 L14.9658256,23.0943577 C14.9658256,25.5406935 16.66355,27.5823777 18.9146594,28.0470551 C18.5022188,28.1609112 18.0673071,28.2239947 17.6173754,28.2239947 C17.2994467,28.2239947 16.9919888,28.1916885 16.690531,28.1301338 C17.3174079,30.1379831 19.135135,31.5980761 21.2887912,31.6381068 C19.6045573,32.9920683 17.4809017,33.7967448 15.1743009,33.7967448 C14.7768802,33.7967448 14.3854204,33.772123 14,33.7275059 C16.179147,35.1630173 18.7662247,36 21.5467578,36 C30.6037456,36 35.554445,28.3040157 35.554445,21.6296782 L35.5379349,20.9757905 C36.5052507,20.2679922 37.3420931,19.3787081 38.0005,18.3663147 Z" fill-opacity="0.9" fill="#FFFFFF" fill-rule="nonzero" transform="translate(26.000250, 26.000000) rotate(-15.000000) translate(-26.000250, -26.000000) "></path>
                    </g>
                </g>
            </g>
        </g>
    </g>
</svg>