<?xml version="1.0" encoding="UTF-8"?>
<svg width="35px" height="35px" viewBox="0 0 35 35" version="1.1" xmlns="http://www.w3.org/2000/svg" xmlns:xlink="http://www.w3.org/1999/xlink">
    <!-- Generator: Sketch 51 (57462) - http://www.bohemiancoding.com/sketch -->
    <title>usa</title>
    <desc>Created with Sketch.</desc>
    <defs>
        <circle id="path-1" cx="17.5" cy="17.5" r="17.5"></circle>
    </defs>
    <g id="landing-page" stroke="none" stroke-width="1" fill="none" fill-rule="evenodd">
        <g transform="translate(-862.000000, -1638.000000)" id="section-features">
            <g transform="translate(0.000000, 1348.000000)">
                <g id="image6" transform="translate(509.000000, 216.000000)">
                    <g id="usa" transform="translate(353.000000, 74.000000)">
                        <mask id="mask-2" fill="white">
                            <use xlink:href="#path-1"></use>
                        </mask>
                        <use id="Oval" fill="#F3F3F3" fill-rule="nonzero" xlink:href="#path-1"></use>
                        <g id="Group" mask="url(#mask-2)" fill="#D80027" fill-rule="nonzero">
                            <g transform="translate(0.000000, 4.000000)" id="Shape">
                                <path d="M16.8335275,14.0513417 L34.9204545,14.0513417 C34.9204545,12.4088771 34.7119129,10.8177351 34.3233348,9.30414565 L16.8335275,9.30414565 L16.8335275,14.0513417 Z"></path>
                                <path d="M16.8335275,4.67470635 L32.3763816,4.67470635 C31.3153243,2.90201278 29.9586525,1.33513523 28.3768504,0.0451977243 L16.8335275,0.0451977243 L16.8335275,4.67470635 Z"></path>
                                <path d="M17.5871212,31.68 C21.6664806,31.68 25.415965,30.2364457 28.3768504,27.8221108 L6.79739205,27.8221108 C9.75827746,30.2364457 13.5077618,31.68 17.5871212,31.68 Z"></path>
                                <path d="M1.99644692,23.2514459 L32.3268878,23.2514459 C33.2003811,21.7921645 33.8778053,20.1970418 34.3233348,18.5042498 L-9.23705556e-14,18.5042498 C0.445529469,20.1970418 1.12295366,21.7921645 1.99644692,23.2514459 Z"></path>
                            </g>
                        </g>
                        <path d="M8.3379375,2.81095313 L9.97825781,2.81095313 L8.45247656,3.91942969 L9.03529688,5.71303125 L7.50958594,4.60455469 L5.983875,5.71303125 L6.4873125,4.16355469 C5.14392188,5.28257812 3.96646875,6.593625 2.99615625,8.0544375 L3.52174219,8.0544375 L2.55051563,8.76002344 C2.39920313,9.01244531 2.25407812,9.268875 2.115,9.52910156 L2.57878125,10.9565156 L1.71351563,10.3278516 C1.49842969,10.7835469 1.30169531,11.2495078 1.12485938,11.7251719 L1.63582031,13.2979219 L3.52174219,13.2979219 L1.99596094,14.4063984 L2.57878125,16.2 L1.05307031,15.0915234 L0.139148438,15.7555547 C0.047671875,16.4908828 0,17.2398516 0,18 L18,18 C18,8.0589375 18,6.88696875 18,0 C14.4441562,0 11.1294141,1.03148438 8.3379375,2.81095313 Z M9.03529688,16.2 L7.50958594,15.0915234 L5.983875,16.2 L6.56669531,14.4063984 L5.04091406,13.2979219 L6.92683594,13.2979219 L7.50958594,11.5043203 L8.09233594,13.2979219 L9.97825781,13.2979219 L8.45247656,14.4063984 L9.03529688,16.2 Z M8.45247656,9.16291406 L9.03529688,10.9565156 L7.50958594,9.84803906 L5.983875,10.9565156 L6.56669531,9.16291406 L5.04091406,8.0544375 L6.92683594,8.0544375 L7.50958594,6.26083594 L8.09233594,8.0544375 L9.97825781,8.0544375 L8.45247656,9.16291406 Z M15.4918125,16.2 L13.9661016,15.0915234 L12.4403906,16.2 L13.0232109,14.4063984 L11.4974297,13.2979219 L13.3833516,13.2979219 L13.9661016,11.5043203 L14.5488516,13.2979219 L16.4347734,13.2979219 L14.9089922,14.4063984 L15.4918125,16.2 Z M14.9089922,9.16291406 L15.4918125,10.9565156 L13.9661016,9.84803906 L12.4403906,10.9565156 L13.0232109,9.16291406 L11.4974297,8.0544375 L13.3833516,8.0544375 L13.9661016,6.26083594 L14.5488516,8.0544375 L16.4347734,8.0544375 L14.9089922,9.16291406 Z M14.9089922,3.91942969 L15.4918125,5.71303125 L13.9661016,4.60455469 L12.4403906,5.71303125 L13.0232109,3.91942969 L11.4974297,2.81095313 L13.3833516,2.81095313 L13.9661016,1.01735156 L14.5488516,2.81095313 L16.4347734,2.81095313 L14.9089922,3.91942969 Z" id="Shape" fill="#0052B4" fill-rule="nonzero" mask="url(#mask-2)"></path>
                    </g>
                </g>
            </g>
        </g>
    </g>
</svg>