<?xml version="1.0" encoding="UTF-8"?>
<svg width="49px" height="49px" viewBox="0 0 49 49" version="1.1" xmlns="http://www.w3.org/2000/svg" xmlns:xlink="http://www.w3.org/1999/xlink">
    <!-- Generator: Sketch 51 (57462) - http://www.bohemiancoding.com/sketch -->
    <title>bitcoin</title>
    <desc>Created with Sketch.</desc>
    <defs></defs>
    <g id="landing-page" stroke="none" stroke-width="1" fill="none" fill-rule="evenodd">
        <g transform="translate(-534.000000, -1712.000000)" id="section-features">
            <g transform="translate(0.000000, 1348.000000)">
                <g id="Group-2" transform="translate(509.000000, 265.000000)">
                    <g id="bitcoin" transform="translate(25.000000, 99.000000)">
                        <circle id="Oval" fill="#EB9A3E" cx="24.3534906" cy="24.3534906" r="24.3534906"></circle>
                        <path d="M15.4976758,15.5437999 L20.1469786,15.5437999 L20.1469786,11.5310088 L22.803723,11.5310088 L22.803723,15.5437999 L24.7962813,15.5437999 L24.7962813,11.5310088 L27.4530257,11.5310088 L27.4530257,15.5437999 C34.7590729,15.5437999 34.7590729,23.569382 30.7739563,23.9037812 C36.0874451,23.569382 37.4158173,34.2701581 27.4530257,34.2701581 L27.4530257,38.2829492 L24.7962813,38.2829492 L24.7962813,34.2701581 L22.803723,34.2701581 L22.803723,38.2829492 L20.1469786,38.2829492 L20.1469786,34.2701581 L15.4976758,34.2701581 L16.1618619,31.5949641 L17.4902341,31.5949641 C18.2238739,31.5949641 18.8186064,30.9961015 18.8186064,30.2573671 L18.8186064,19.5565909 C18.8186064,18.8178565 18.2238739,18.2189939 17.4902341,18.2189939 L15.4976758,18.2189939 L15.4976758,15.5437999 Z M22.803723,18.2189939 L22.803723,23.569382 C22.803723,23.569382 28.781398,23.9037812 28.781398,20.8941879 C28.781398,17.8845946 22.803723,18.2189939 22.803723,18.2189939 Z M22.803723,25.5757775 L22.803723,31.5949641 C22.803723,31.5949641 30.1097702,31.5949641 30.1097702,28.5853708 C30.1097702,25.5757775 22.803723,25.5757775 22.803723,25.5757775 Z" id="Shape" fill="#FFFFFF" fill-rule="nonzero"></path>
                    </g>
                </g>
            </g>
        </g>
    </g>
</svg>