<?xml version="1.0" encoding="UTF-8"?>
<svg width="44px" height="44px" viewBox="0 0 44 44" version="1.1" xmlns="http://www.w3.org/2000/svg" xmlns:xlink="http://www.w3.org/1999/xlink">
    <!-- Generator: Sketch 51 (57462) - http://www.bohemiancoding.com/sketch -->
    <title>XMR</title>
    <desc>Created with Sketch.</desc>
    <defs></defs>
    <g id="landing-page" stroke="none" stroke-width="1" fill="none" fill-rule="evenodd">
        <g transform="translate(-856.000000, -1838.000000)" id="section-features">
            <g transform="translate(0.000000, 1348.000000)">
                <g id="XMR" transform="translate(856.000000, 490.000000)">
                    <path d="M44,21.5217391 C44,33.4079804 34.15038,43.0434783 22,43.0434783 C9.84962,43.0434783 0,33.4079804 0,21.5217391 C0,9.63549783 9.84962,0 22,0 C34.15038,0 44,9.63549783 44,21.5217391" id="Fill-609" fill="#FFFFFF"></path>
                    <path d="M40.0888889,33.6322291 C38.9047107,35.5503257 37.429946,37.2700588 35.7279082,38.7328805 C35.6298816,38.8178622 35.5318551,38.9013147 35.4318636,38.9828011 C34.2350228,39.9768033 32.9285843,40.8432237 31.535472,41.563493 C31.3114737,41.6821179 31.0859472,41.7948443 30.8564908,41.9003615 C28.0237637,43.2482722 24.8543841,44 21.511002,44 C18.0957919,44 14.8633173,43.2148475 11.9845242,41.8134136 C11.834537,41.7430688 11.6865148,41.6690102 11.5387108,41.5912377 C10.1436336,40.8746822 8.83544859,40.010228 7.63467793,39.017755 C7.49975498,38.908524 7.36636027,38.7957976 7.23514879,38.6828527 C5.55690805,37.231391 4.10463053,35.5280426 2.93333333,33.6322291 L11.9845242,33.6322291 L11.9845242,22 L18.3141138,28.3336511 L19.2537714,29.2741301 L21.5518282,31.573443 L23.84792,29.2741301 L24.7895425,28.3336511 L30.8564908,22.2610621 L30.8564908,33.6322291 L40.0888889,33.6322291 Z" id="Fill-610" fill="#4C4C4C"></path>
                    <path d="M44,21.6419058 C44,24.1125458 43.5787,26.4855808 42.8032,28.6956522 L36.32618,28.6956522 L36.32618,10.5000034 L31.41732,15.3291783 L22.04114,24.5544735 L7.6142,10.3623609 L7.6142,28.6956522 L1.19702,28.6956522 C0.4213,26.4855808 0,24.1125458 0,21.6419058 C0,18.059954 0.8855,14.6816525 2.45344,11.7050248 C3.17878,10.3240547 4.05152,9.0290031 5.05274,7.84237741 C5.83198,6.91632026 6.68954,6.05432315 7.6142,5.26742346 C9.0574,4.0403274 10.6645,2.99329199 12.40008,2.16613835 C15.30122,0.777593676 18.55832,0 22,0 C25.36886,0 28.56282,0.744697979 31.41732,2.07978715 C33.19756,2.90888856 34.84756,3.96890911 36.32618,5.21786349 C37.28802,6.03051705 38.17946,6.92367851 38.9829,7.8865269 C39.98214,9.07683172 40.8529,10.3733983 41.5745,11.7563161 C43.1255,14.7201751 44,18.080081 44,21.6419058" id="Fill-611" fill="#FF6600"></path>
                </g>
            </g>
        </g>
    </g>
</svg>